<?xml version="1.0" encoding="UTF-8" standalone="no"?>
<!-- Created with Inkscape (http://www.inkscape.org/) -->

<svg
   width="105mm"
   height="105mm"
   viewBox="0 0 105 105"
   version="1.1"
   id="svg5"
   inkscape:version="1.2.2 (732a01da63, 2022-12-09)"
   sodipodi:docname="веретено.svg"
   xmlns:inkscape="http://www.inkscape.org/namespaces/inkscape"
   xmlns:sodipodi="http://sodipodi.sourceforge.net/DTD/sodipodi-0.dtd"
   xmlns="http://www.w3.org/2000/svg"
   xmlns:svg="http://www.w3.org/2000/svg">
  <sodipodi:namedview
     id="namedview7"
     pagecolor="#ffffff"
     bordercolor="#000000"
     borderopacity="0.25"
     inkscape:showpageshadow="2"
     inkscape:pageopacity="0.0"
     inkscape:pagecheckerboard="0"
     inkscape:deskcolor="#d1d1d1"
     inkscape:document-units="mm"
     showgrid="false"
     inkscape:zoom="23.204938"
     inkscape:cx="261.86237"
     inkscape:cy="221.13828"
     inkscape:window-width="1920"
     inkscape:window-height="1001"
     inkscape:window-x="-9"
     inkscape:window-y="-9"
     inkscape:window-maximized="1"
     inkscape:current-layer="layer1" />
  <defs
     id="defs2" />
  <g
     inkscape:label="Слой 1"
     inkscape:groupmode="layer"
     id="layer1">
    <rect
       style="fill:#000000;fill-opacity:1;stroke:#32504d;stroke-width:1.8;stroke-dasharray:none;stroke-opacity:1"
       id="rect234"
       width="100"
       height="100"
       x="2.5"
       y="2.5"
       ry="11.675675" />
    <path
       style="fill:#e6a170;fill-opacity:1;stroke:#32504d;stroke-width:2.08264e-08;stroke-dasharray:none;stroke-opacity:1"
       d="m 31.554862,88.852104 5.567696,-10.798681 -7.423594,0.272236 c 0,0 -5.037437,-4.53726 -0.44188,-6.80589 4.595557,-2.26863 50.197627,0.36298 50.197627,0.36298 0,0 5.744447,1.451924 -0.08838,3.8113 -5.832823,2.359374 -9.898124,1.996394 -9.898124,1.996394 l 6.628209,9.437501 -6.274704,-0.18149 -5.744448,-8.893031 -22.624282,0.362982 -4.772309,10.072717 z"
       id="path4632" />
    <path
       style="fill:#e6a170;fill-opacity:1;stroke:#32504d;stroke-width:2.83564e-08;stroke-dasharray:none;stroke-opacity:1"
       d="M 34.837716,39.073562 31.968175,73.776518 42.43806,73.594037 37.754127,39.524146 Z"
       id="path6287" />
    <path
       style="fill:#e6a170;fill-opacity:1;stroke:#32504d;stroke-width:2.90615e-08;stroke-dasharray:none;stroke-opacity:1"
       d="m 72.858683,56.425038 -0.354838,15.093966 2.809133,0.424074 -1.031389,-14.483595 z"
       id="path7849"
       sodipodi:nodetypes="ccccc" />
    <path
       style="fill:#e6a170;fill-opacity:1;stroke:none;stroke-width:0;stroke-dasharray:none;stroke-opacity:1"
       d="m 59.279789,33.909353 1.322957,0.0345 v 0 l 13.678843,23.515631 -1.429591,-0.750088 z"
       id="path7911"
       sodipodi:nodetypes="cccccc" />
  </g>
</svg>
